<svg id="Layer_1" data-name="Layer 1" xmlns="http://www.w3.org/2000/svg" viewBox="0 0 123.69 171.2834"><defs><style>.cls-1,.cls-2,.cls-3{fill:none;}.cls-1,.cls-2{stroke:#000;stroke-miterlimit:10;}.cls-2{stroke-width:0.75px;}</style></defs><title>address</title><path d="M61.85,3.0145C27.69,3.0145,0,30.1645,0,63.6745a59.382,59.382,0,0,0,3.88,21.18c.01.02.01.04.02.06,3.14,11.25,43.85,74.93,51.75,84.93,7.91,10.02,12.66,0,12.66,0,45.47-65.66,51.17-83.86,51.49-84.94a.175.175,0,0,0,.01-.05,59.382,59.382,0,0,0,3.88-21.18C123.69,30.1645,96,3.0145,61.85,3.0145Zm-.04,110.85a49.845,49.845,0,1,1,49.85-49.84A49.8347,49.8347,0,0,1,61.81,113.8645Z" transform="translate(0 -3.0145)"/><path class="cls-1" d="M62.01,46.9445l21.46,12.96v28.97H70.12l-.49-23.83s.1-1.46-1.59-1.37c-1.68.08-12.16,0-12.16,0s-1.88.08-1.78,1.77c.1,1.68,0,6.92,0,6.92l4.35-.1s2.08.2,2.08,1.88-.3,2.08-2.08,2.17a39.4838,39.4838,0,0,1-4.25-.09l-.1,12.65H40.55v-28.97Z" transform="translate(0 -3.0145)"/><path class="cls-1" d="M61.81,14.1745a49.845,49.845,0,1,0,49.85,49.85A49.8433,49.8433,0,0,0,61.81,14.1745Zm33.63,53.05-5.44-3.2-.2,26.93s.5,3.76-4.15,3.76H38.97s-4.55,0-4.75-4.06c-.2-4.05-.3-26.63-.3-26.63l-5.34,3.2v-13.85l30.27-18.89a5.2025,5.2025,0,0,1,6.52,0c3.66,2.57,9.6,5.93,9.6,5.93v-3.16s-.69-2.08,2.77-2.08h7.02s1.68.2,1.58,2.97.01,7.91.01,7.91v1.48l9.09,5.84Z" transform="translate(0 -3.0145)"/><path class="cls-1" d="M55.6487,169.8462" transform="translate(0 -3.0145)"/><path class="cls-1" d="M62.01,46.9445l21.46,12.96v28.97H70.12l-.49-23.83s.1-1.46-1.59-1.37c-1.68.08-12.16,0-12.16,0s-1.88.08-1.78,1.77c.1,1.68,0,6.92,0,6.92l4.35-.1s2.08.2,2.08,1.88-.3,2.08-2.08,2.17a39.4838,39.4838,0,0,1-4.25-.09l-.1,12.65H40.55v-28.97Z" transform="translate(0 -3.0145)"/><path class="cls-1" d="M61.81,14.1745a49.845,49.845,0,1,0,49.85,49.85A49.8433,49.8433,0,0,0,61.81,14.1745Zm33.63,53.05-5.44-3.2-.2,26.93s.5,3.76-4.15,3.76H38.97s-4.55,0-4.75-4.06c-.2-4.05-.3-26.63-.3-26.63l-5.34,3.2v-13.85l30.27-18.89a5.2025,5.2025,0,0,1,6.52,0c3.66,2.57,9.6,5.93,9.6,5.93v-3.16s-.69-2.08,2.77-2.08h7.02s1.68.2,1.58,2.97.01,7.91.01,7.91v1.48l9.09,5.84Z" transform="translate(0 -3.0145)"/><path d="M86.35,47.5345v-1.48s-.11-5.14-.01-7.91-1.58-2.97-1.58-2.97H77.74c-3.46,0-2.77,2.08-2.77,2.08v3.16s-5.94-3.36-9.6-5.93a5.2025,5.2025,0,0,0-6.52,0l-30.27,18.89v13.85l5.34-3.2s.1,22.58.3,26.63c.2,4.06,4.75,4.06,4.75,4.06H85.65c4.65,0,4.15-3.76,4.15-3.76l.2-26.93,5.44,3.2v-13.85Zm-2.88,41.34H70.12l-.49-23.83s.1-1.46-1.59-1.37c-1.68.08-12.16,0-12.16,0s-1.88.08-1.78,1.77c.1,1.68,0,6.92,0,6.92l4.35-.1s2.08.2,2.08,1.88-.3,2.08-2.08,2.17a39.4838,39.4838,0,0,1-4.25-.09l-.1,12.65H40.55v-28.97l21.46-12.96,21.46,12.96Z" transform="translate(0 -3.0145)"/><path class="cls-2" d="M83.47,59.9045v28.97H70.12l-.49-23.83s.1-1.46-1.59-1.37c-1.68.08-12.16,0-12.16,0s-1.88.08-1.78,1.77c.1,1.68,0,6.92,0,6.92l4.35-.1s2.08.2,2.08,1.88-.3,2.08-2.08,2.17a39.4838,39.4838,0,0,1-4.25-.09l-.1,12.65H40.55v-28.97l21.46-12.96Z" transform="translate(0 -3.0145)"/><path class="cls-3" d="M83.47,59.9045v28.97H70.12s-.2667-17.2993-1.3151-23.2317c-.2192-1.24-.4726-1.9839-.7649-1.9683-1.68.08-12.16,0-12.16,0s-1.88.08-1.78,1.77c.1,1.68,0,6.92,0,6.92l4.35-.1s2.08.2,2.08,1.88-.3,2.08-2.08,2.17a39.4838,39.4838,0,0,1-4.25-.09l-.1,12.65H40.55v-28.97l21.46-12.96Z" transform="translate(0 -3.0145)"/></svg>