<svg id="Layer_1" data-name="Layer 1" xmlns="http://www.w3.org/2000/svg" viewBox="0 0 384.4091 384.4091"><defs><style>.cls-1,.cls-3,.cls-5,.cls-6{fill:none;}.cls-1,.cls-2,.cls-3,.cls-4,.cls-5,.cls-6{stroke:#000;stroke-miterlimit:10;}.cls-1{stroke-width:6px;}.cls-3{stroke-width:4px;}.cls-4{fill:#fff;}.cls-5{stroke-width:2px;}</style></defs><title>cry-face</title><circle class="cls-1" cx="192.2045" cy="192.2045" r="189.2045"/><ellipse class="cls-2" cx="136.4432" cy="160.7727" rx="26.4205" ry="39.7727"/><ellipse class="cls-2" cx="247.8011" cy="160.7727" rx="26.4205" ry="39.7727"/><path class="cls-3" d="M134.6619,208.2557s7.1591-42.1591,50.3125-48.125" transform="translate(-57.7955 -57.7955)"/><path class="cls-3" d="M362.0854,208.2557s-7.1591-42.1591-50.3125-48.125" transform="translate(-57.7955 -57.7955)"/><path class="cls-4" d="M183.1591,349.6364" transform="translate(-57.7955 -57.7955)"/><path d="M189.6935,365.6745a1.2183,1.2183,0,0,1,.1153-1.4206l.1742-.2147.35-.4274.7081-.8384c.4849-.5444.9564-1.1025,1.4551-1.6324q1.471-1.6155,3.0228-3.1489c2.0516-2.0623,4.2261-3.996,6.4512-5.8662a92.6364,92.6364,0,0,1,14.3784-9.8494,73.5109,73.5109,0,0,1,16.1526-6.5982,63.5393,63.5393,0,0,1,17.3136-2.2418,61.0562,61.0562,0,0,1,17.2567,2.5954,73.9082,73.9082,0,0,1,16.0254,6.8408,116.67,116.67,0,0,1,27.0979,21.633l-1.0478,1.1348,0,0a86.8549,86.8549,0,0,0-13.415-8.2592,104.16,104.16,0,0,0-29.94-9.8352,98.3461,98.3461,0,0,0-15.7379-1.2325c-1.3161.0321-2.6349-.0153-3.9485.0813l-3.9421.2494c-1.3112.1148-2.6162.299-3.9245.4447-.6526.0847-1.31.1381-1.9588.2484l-1.9454.3417a97.015,97.015,0,0,0-15.2964,3.8914l-3.7188,1.3385c-1.2486.4224-2.4346,1.0078-3.655,1.5034-1.2045.5342-2.4423.9942-3.6195,1.5887l-3.5442,1.755-1.7687.8839-1.721.9759-3.4421,1.9508c-.551.2933-1.1871.7137-1.85,1.112-.6581.3956-1.3456.78-2.0413,1.1317C192.2748,364.5172,190.918,365.0758,189.6935,365.6745Zm1.3429-1.2682c1.0138-.8334,1.8952-1.7069,2.732-2.4318a15.9544,15.9544,0,0,1,1.316-1.0164,14.7973,14.7973,0,0,1,1.55-.964l3.4974-1.9718,1.7488-.9855,1.7982-.894,3.6037-1.7736c1.1969-.6,2.4564-1.0666,3.6817-1.6061,1.2417-.5013,2.4478-1.0914,3.7188-1.519l3.7848-1.3523a98.74,98.74,0,0,1,15.5757-3.9234l1.9812-.3427c.6609-.1105,1.33-.164,1.9949-.2487,1.3324-.1456,2.6614-.3292,3.9965-.4429l4.0141-.2447c1.3375-.0946,2.68-.0445,4.02-.0735a100.0461,100.0461,0,0,1,16.01,1.2918,105.7863,105.7863,0,0,1,30.3884,10.06,88.1364,88.1364,0,0,1,13.6742,8.4721l.0006,0-1.0478,1.1347a115.1,115.1,0,0,0-26.7706-21.286,72.273,72.273,0,0,0-15.6963-6.6628A59.37,59.37,0,0,0,249.8,335.1338a61.8192,61.8192,0,0,0-16.8409,2.2178,71.7623,71.7623,0,0,0-15.7559,6.4775,90.8484,90.8484,0,0,0-14.0739,9.6867c-2.18,1.84-4.3115,3.7437-6.3194,5.7712-1.01,1.0072-1.9982,2.0361-2.9546,3.0911-.4876.52-.9444,1.064-1.4166,1.596l-.6842.8136-.3334.41-.1658.205a.6942.6942,0,0,0,.1165-.4436A.715.715,0,0,0,191.0364,364.4063Z" transform="translate(-57.7955 -57.7955)"/><path class="cls-5" d="M194.2386,259.3028s-27.1091,59.5636,0,59.5636S194.2386,259.3028,194.2386,259.3028Z" transform="translate(-57.7955 -57.7955)"/><path class="cls-6" d="M250,239.7033" transform="translate(-57.7955 -57.7955)"/></svg>