<svg id="Layer_1" data-name="Layer 1" xmlns="http://www.w3.org/2000/svg" viewBox="0 0 151.5339 152.8046"><title>phone</title><path d="M29.6814,3.0889S-11.2115,11.508,6.3484,61.0606s61.3394,83.71,101.27,92.6105,45.7038-27.9034,45.7038-27.9034,1.6839-5.5326-5.292-9.6219-26.46-14.6733-26.46-14.6733a8.0032,8.0032,0,0,0-10.5841,1.6838c-5.0515,5.5326-11.7868,13.7112-11.7868,13.7112s-3.1271,4.0892-10.1029.24S58.0659,102.1941,37.86,64.6688a9.19,9.19,0,0,1,3.6082-9.6218C46.76,50.9577,54.9388,43.26,54.9388,43.26s4.57-3.6082-.9622-10.8246S38.5817,5.7349,38.5817,5.7349,37.5042.2023,29.6814,3.0889Z" transform="translate(-1.967 -2.2548)"/></svg>