<svg id="Layer_1" data-name="Layer 1" xmlns="http://www.w3.org/2000/svg" viewBox="0 0 355.60394 500"><defs><style>.cls-1{fill:#24644b;}.cls-2{fill:#18583f;}.cls-3{fill:#c22214;}.cls-4{fill:#de2a1b;}.cls-5{fill:#3c7c63;}.cls-6{fill:#307057;}.cls-7{fill:#48886f;}</style></defs><title>plant-bot</title><path class="cls-1" d="M287.97786,121.1924l-39.73408,21.51169s-36.40328-9.37033-45.94637-23.30147C262.91432,99.55633,278.71812,29.88694,282.69153,1.154,311.36917,61.27339,287.97786,121.1924,287.97786,121.1924Z" transform="translate(-84.19803 0)"/><path class="cls-2" d="M282.69153,1.154c-3.97341,28.73294-19.77721,98.40233-80.39412,118.24862-4.60226-6.72368-2.95761-14.50466,12.05148-22.81082C260.45427,71.07907,282.14559,0,282.14559,0,282.33218.387,282.51877.767,282.69153,1.154Z" transform="translate(-84.19803 0)"/><path class="cls-3" d="M359.48759,287.86149c-.11747,1.09183-.23493,2.18362-.34552,3.27546q-.37314,3.51388-.73936,7.02774c-8.83827-.60807-70.07712-3.08888-125.43532,38.90483C173.13822,382.44933,192.73575,500,192.73575,500H166.49054L145.276,291.137l-.11055-1.09184Z" transform="translate(-84.19803 0)"/><path class="cls-4" d="M358.40271,298.16469c-.06221.5321-.1175,1.07112-.17276,1.60319Q347.65723,399.88742,337.07757,500H192.73575s-19.59753-117.55067,40.23164-162.93048C288.32559,295.07581,349.56444,297.55662,358.40271,298.16469Z" transform="translate(-84.19803 0)"/><path class="cls-1" d="M222.15144,227.20026s-10.00606,12.632-16.86108,20.00525l-6.83423-5.314c-78.30724-117.06-29.0992-195.50548-12.05844-216.9135,2.08691-1.73448,3.31-2.62594,3.31-2.62594C175.127,78.85049,222.15144,227.20026,222.15144,227.20026Z" transform="translate(-84.19803 0)"/><path class="cls-2" d="M205.29036,247.20551c-3.01979,3.24784-5.43147,5.47984-6.10175,5.14125-2.19058-1.09184-28.43579-26.2383-28.43579-26.2383C87.18687,116.74645,168.507,39.842,186.39769,24.978c-17.04076,21.408-66.2488,99.85347,12.05844,216.9135Z" transform="translate(-84.19803 0)"/><path class="cls-1" d="M356.72517,159.00965s-29.05082,1.76211-54.51517,1.01583c44.9375-28.29758,61.5567-88.18892,66.31789-110.35709.691-1.06417,1.05037-1.63774,1.05037-1.63774C380.2339,127.31914,356.72517,159.00965,356.72517,159.00965Z" transform="translate(-84.19803 0)"/><path class="cls-2" d="M368.52789,49.66839C363.7667,71.83656,347.1475,131.7279,302.21,160.02548c-28.53942-.83616-52.56646-4.81648-26.12774-17.96671C321.55186,119.44833,361.59691,60.26872,368.52789,49.66839Z" transform="translate(-84.19803 0)"/><path class="cls-5" d="M439.54629,158.95741a115.71484,115.71484,0,0,0-76.08211,31.497c-23.05958,21.73282-51.12219,35.35295-69.55884,42.68474-25.71311-6.62693-71.21725-26.19683-.42152-73.67043C381.43782,100.4965,434.13558,153.12513,439.54629,158.95741Z" transform="translate(-84.19803 0)"/><path class="cls-6" d="M439.802,159.23384c-6.38509.67719-27.40613,5.12049-56.65042,33.7705-35.35986,34.62738-54.2042,43.02338-54.2042,43.02338H308.06452a132.28859,132.28859,0,0,1-14.15918-2.88853c18.43665-7.33179,46.49926-20.95192,69.55884-42.68474a115.71484,115.71484,0,0,1,76.08211-31.497C439.65,159.068,439.73288,159.15779,439.802,159.23384Z" transform="translate(-84.19803 0)"/><path class="cls-6" d="M293.97859,111.38405c2.91616,34.26115-11.29828,82.73675-26.2383,101.69162,0,0-6.40583,9.75731-11.40887,18.95488H241.48813C215.8994,103.94171,308.8633,55.0446,318.51006,50.34562,310.47341,59.59845,291.67745,84.35106,293.97859,111.38405Z" transform="translate(-84.19803 0)"/><path class="cls-1" d="M316.58211,165.32565c6.012,38.822-26.79115,66.7049-26.79115,66.7049H256.33142c5.003-9.19757,11.40887-18.95488,11.40887-18.95488,14.94-18.95487,29.15446-67.43047,26.2383-101.69162-2.30114-27.033,16.49482-51.7856,24.53147-61.03843.52519-.25567.80162-.3801.80162-.3801C314.39152,66.36364,316.58211,165.32565,316.58211,165.32565Z" transform="translate(-84.19803 0)"/><path class="cls-5" d="M252.69663,216.81335,239.64311,239.7278a21.96688,21.96688,0,0,1-10.94585,5.27946c-7.21433-17.53828-16.76433-42.91971-26.96391-75.94394-17.36552-56.2289,17.0891-109.83882,30.99257-128.386.38005-.152.615-.24189.691-.27643-.29714.19351-3.18563,2.62589-.3386,24.78023,2.99908,23.32218,1.45806,9.10778,19.61828,65.97242C270.85681,188.01128,252.69663,216.81335,252.69663,216.81335Z" transform="translate(-84.19803 0)"/><path class="cls-6" d="M201.73335,169.06332c10.19958,33.02423,19.74958,58.40566,26.96391,75.94394-12.32795,1.97633-32.734-6.8619-48.83494-73.394-23.39127-96.64709,45.06883-127.73641,52.8636-130.93587C218.82245,59.2245,184.36783,112.83442,201.73335,169.06332Z" transform="translate(-84.19803 0)"/><path class="cls-5" d="M231.80673,234.52226S169.476,248.46031,121.09028,206.63932c-43.4656-37.57116-37.30165-84.40211-35.6017-93.54439,3.53114,12.4385,14.54612,45.64928,35.6017,63.19447,26.23834,21.871,50.84582,35.53954,76.2687,43.19614a275.40878,275.40878,0,0,0,33.92256,7.40087A62.09263,62.09263,0,0,1,231.80673,234.52226Z" transform="translate(-84.19803 0)"/><path class="cls-7" d="M231.28154,226.88641a275.40878,275.40878,0,0,1-33.92256-7.40087c-25.42288-7.6566-50.03036-21.32514-76.2687-43.19614-21.05558-17.54519-32.07056-50.756-35.6017-63.19447.19346-1.03654.33168-1.58935.33168-1.58935l.96053-.68411C92.10859,119.15526,104.6853,125.72,104.6853,125.72c2.73648,5.18962,39.09143,15.714,39.09143,15.714,11.34666,1.50643,45.37976,17.635,45.37976,17.635C221.93192,180.097,229.5263,212.31267,231.28154,226.88641Z" transform="translate(-84.19803 0)"/><path class="cls-4" d="M374.52771,237.64851v45.19322a8.31673,8.31673,0,0,1-8.29233,8.29233h-4.5608l-2.52915-.01384-213.97667-1.078.11059,1.09184h-6.855a8.31673,8.31673,0,0,1-8.29233-8.29233V237.64851a8.31673,8.31673,0,0,1,8.29233-8.29233H366.23538A8.31673,8.31673,0,0,1,374.52771,237.64851Z" transform="translate(-84.19803 0)"/></svg>